<svg width="276" height="200" viewBox="0 0 276 200" fill="none" xmlns="http://www.w3.org/2000/svg">
<circle cx="156" cy="44" r="156" fill="#1A1D1F"/>
<path d="M81.792 55.18C85.236 55.18 87.924 56.188 89.856 58.204C91.788 60.192 92.754 63.062 92.754 66.814V85H87.294V67.024C87.294 64.7 86.678 62.95 85.446 61.774C84.242 60.57 82.66 59.968 80.7 59.968C78.516 59.968 76.766 60.584 75.45 61.816C74.162 63.048 73.518 64.938 73.518 67.486V85H68.058V67.024C68.058 64.672 67.484 62.908 66.336 61.732C65.216 60.556 63.676 59.968 61.716 59.968C59.504 59.968 57.726 60.598 56.382 61.858C55.066 63.09 54.408 64.966 54.408 67.486V85H48.948V55.6H54.24V59.464C55.136 58.092 56.354 57.042 57.894 56.314C59.434 55.558 61.212 55.18 63.228 55.18C65.3 55.18 67.106 55.572 68.646 56.356C70.186 57.14 71.348 58.246 72.132 59.674C73.112 58.246 74.442 57.14 76.122 56.356C77.83 55.572 79.72 55.18 81.792 55.18ZM121.802 62.572V85H116.804V82.102C115.936 83.166 114.858 83.964 113.57 84.496C112.31 85.028 110.91 85.294 109.37 85.294C107.186 85.294 105.226 84.818 103.49 83.866C101.782 82.914 100.438 81.57 99.4576 79.834C98.5056 78.098 98.0296 76.082 98.0296 73.786C98.0296 71.49 98.5056 69.488 99.4576 67.78C100.438 66.044 101.782 64.7 103.49 63.748C105.226 62.796 107.186 62.32 109.37 62.32C110.826 62.32 112.156 62.572 113.36 63.076C114.592 63.58 115.656 64.322 116.552 65.302V62.572H121.802ZM109.958 80.8C111.89 80.8 113.486 80.156 114.746 78.868C116.006 77.58 116.636 75.886 116.636 73.786C116.636 71.686 116.006 69.992 114.746 68.704C113.486 67.416 111.89 66.772 109.958 66.772C108.026 66.772 106.43 67.416 105.17 68.704C103.938 69.992 103.322 71.686 103.322 73.786C103.322 75.886 103.938 77.58 105.17 78.868C106.43 80.156 108.026 80.8 109.958 80.8ZM141.271 83.782C140.655 84.286 139.899 84.664 139.003 84.916C138.135 85.168 137.211 85.294 136.231 85.294C133.767 85.294 131.863 84.65 130.519 83.362C129.175 82.074 128.503 80.198 128.503 77.734V57.616H133.753V62.74H139.759V66.94H133.753V77.608C133.753 78.7 134.019 79.54 134.551 80.128C135.111 80.688 135.881 80.968 136.861 80.968C138.037 80.968 139.017 80.66 139.801 80.044L141.271 83.782ZM150.608 65.848C152.12 63.496 154.78 62.32 158.588 62.32V67.318C158.14 67.234 157.734 67.192 157.37 67.192C155.326 67.192 153.73 67.794 152.582 68.998C151.434 70.174 150.86 71.882 150.86 74.122V85H145.61V62.572H150.608V65.848ZM163.042 62.572H168.292V85H163.042V62.572ZM165.688 58.876C164.736 58.876 163.938 58.582 163.294 57.994C162.65 57.378 162.328 56.622 162.328 55.726C162.328 54.83 162.65 54.088 163.294 53.5C163.938 52.884 164.736 52.576 165.688 52.576C166.64 52.576 167.438 52.87 168.082 53.458C168.726 54.018 169.048 54.732 169.048 55.6C169.048 56.524 168.726 57.308 168.082 57.952C167.466 58.568 166.668 58.876 165.688 58.876ZM192.65 85L184.67 73.828L176.774 85H170.558L181.478 70.006L171.146 55.6H177.32L184.838 66.058L192.272 55.6H198.194L187.904 69.796L198.95 85H192.65Z" fill="#DEDEDE"/>
</svg>
